<?xml version="1.0" encoding="utf-8"?>
<!-- Generator: Adobe Illustrator 24.0.1, SVG Export Plug-In . SVG Version: 6.00 Build 0)  -->
<svg version="1.1" id="Layer_1" xmlns="http://www.w3.org/2000/svg" xmlns:xlink="http://www.w3.org/1999/xlink" x="0px" y="0px"
	 width="820px" height="381.616px" viewBox="0 0 820 381.616" style="enable-background:new 0 0 820 381.616;" xml:space="preserve"
	>
<style type="text/css">
	.st0{opacity:0.8;fill:url(#SVGID_1_);}
	.st1{fill:#333333;}
	.st2{fill:url(#SVGID_2_);}
	.st3{fill:url(#SVGID_3_);}
	.st4{fill:url(#SVGID_4_);}
	.st5{fill:url(#SVGID_5_);}
	.st6{fill:url(#SVGID_6_);}
	.st7{fill:url(#SVGID_7_);}
	.st8{fill:url(#SVGID_8_);}
	.st9{fill:url(#SVGID_9_);}
</style>
<linearGradient id="SVGID_1_" gradientUnits="userSpaceOnUse" x1="300.0174" y1="255.847" x2="525.7222" y2="125.5363">
	<stop  offset="0" style="stop-color:#00A9D7"/>
	<stop  offset="0.9724" style="stop-color:#1CD0BB"/>
</linearGradient>
<rect x="372.292" y="0.353" class="st0" width="81.156" height="380.677"/>
<g>
	<path class="st1" d="M431.922,16.033v42.015h-42.015V16.033H431.922 M435.922,12.033h-50.015v50.015h50.015V12.033L435.922,12.033z
		"/>
	<path class="st1" d="M431.922,92.658v42.015h-42.015V92.658H431.922 M435.922,88.658h-50.015v50.015h50.015V88.658L435.922,88.658z
		"/>
	<path class="st1" d="M431.922,169.284v42.015h-42.015v-42.015H431.922 M435.922,165.284h-50.015v50.015h50.015V165.284
		L435.922,165.284z"/>
	<path class="st1" d="M431.922,245.909v42.015h-42.015v-42.015H431.922 M435.922,241.909h-50.015v50.015h50.015V241.909
		L435.922,241.909z"/>
	<path class="st1" d="M431.922,323.336v42.015h-42.015v-42.015H431.922 M435.922,319.336h-50.015v50.015h50.015V319.336
		L435.922,319.336z"/>
	<linearGradient id="SVGID_2_" gradientUnits="userSpaceOnUse" x1="567.3091" y1="190.2911" x2="635.3044" y2="190.2911">
		<stop  offset="0" style="stop-color:#17C9C0"/>
		<stop  offset="0.1678" style="stop-color:#00A9D7"/>
		<stop  offset="0.5644" style="stop-color:#1CD0BB"/>
		<stop  offset="1" style="stop-color:#0FBEC8"/>
	</linearGradient>
	<path class="st2" d="M601.307,224.289c-18.747,0-33.998-15.251-33.998-33.998c0-18.746,15.251-33.997,33.998-33.997
		c18.746,0,33.998,15.251,33.998,33.997C635.304,209.038,620.053,224.289,601.307,224.289z M601.307,163.245
		c-14.913,0-27.046,12.133-27.046,27.046s12.133,27.047,27.046,27.047c14.913,0,27.046-12.134,27.046-27.047
		S616.22,163.245,601.307,163.245z"/>
	<g>
		<g>
			<g>
				<rect x="435.242" y="188.348" class="st1" width="102.125" height="4"/>
				<g>
					<polygon class="st1" points="535.617,196.331 545.979,190.348 535.617,184.364 					"/>
				</g>
			</g>
		</g>
		<g>
			<g>
				
					<rect x="431.334" y="246.57" transform="matrix(0.9438 -0.3307 0.3307 0.9438 -54.7096 175.5307)" class="st1" width="114.478" height="4"/>
				<g>
					<polygon class="st1" points="542.918,235.87 550.72,226.796 538.961,224.576 					"/>
				</g>
			</g>
			<g>
				
					<rect x="420.908" y="301.197" transform="matrix(0.8413 -0.5405 0.5405 0.8413 -84.0372 320.124)" class="st1" width="164.643" height="4"/>
				<g>
					<polygon class="st1" points="574.25,264.683 579.734,254.048 567.782,254.615 					"/>
				</g>
			</g>
		</g>
		<g>
			<g>
				
					<rect x="486.244" y="77.481" transform="matrix(0.3057 -0.9521 0.9521 0.3057 210.9233 558.2349)" class="st1" width="4" height="114.012"/>
				<g>
					<polygon class="st1" points="539.024,157.077 550.72,154.549 542.683,145.683 					"/>
				</g>
			</g>
			<g>
				
					<rect x="501.166" y="0.171" transform="matrix(0.5172 -0.8559 0.8559 0.5172 173.5736 469.7519)" class="st1" width="4" height="161.706"/>
				<g>
					<polygon class="st1" points="567.771,127.058 579.734,127.297 573.961,116.816 					"/>
				</g>
			</g>
		</g>
	</g>
	<g>
		<rect x="254.85" y="188.291" class="st1" width="102.126" height="4"/>
		<g>
			<polygon class="st1" points="355.225,184.307 365.587,190.291 355.225,196.275 			"/>
		</g>
	</g>
	<g>
		<g>
			
				<rect x="252.505" y="141.089" transform="matrix(0.9428 -0.3335 0.3335 0.9428 -29.9938 111.4311)" class="st1" width="114.206" height="4"/>
			<g>
				<polygon class="st1" points="359.796,118.989 371.561,121.175 363.787,130.271 				"/>
			</g>
		</g>
		<g>
			
				<rect x="206.704" y="104.604" transform="matrix(0.8144 -0.5804 0.5804 0.8144 -7.7951 188.8403)" class="st1" width="169.146" height="4"/>
			<g>
				<polygon class="st1" points="355.249,53.66 367.16,52.519 362.195,63.406 				"/>
			</g>
		</g>
	</g>
	<g>
		<g>
			
				<rect x="306.227" y="178.029" transform="matrix(0.3621 -0.9321 0.9321 0.3621 -24.648 438.7076)" class="st1" width="4" height="118.669"/>
			<g>
				<polygon class="st1" points="364.069,252.64 371.561,261.97 359.735,263.795 				"/>
			</g>
		</g>
		<g>
			
				<rect x="287.388" y="186.372" transform="matrix(0.5888 -0.8083 0.8083 0.5888 -102.4501 346.5822)" class="st1" width="3.999" height="175.209"/>
			<g>
				<polygon class="st1" points="362.307,319.688 367.16,330.626 355.261,329.361 				"/>
			</g>
		</g>
	</g>
	<g>
		<linearGradient id="SVGID_3_" gradientUnits="userSpaceOnUse" x1="189.3195" y1="189.5658" x2="268.9846" y2="189.5658">
			<stop  offset="0" style="stop-color:#17C9C0"/>
			<stop  offset="0.1678" style="stop-color:#00A9D7"/>
			<stop  offset="0.5644" style="stop-color:#1CD0BB"/>
			<stop  offset="1" style="stop-color:#0FBEC8"/>
		</linearGradient>
		<path class="st3" d="M189.35,189.346v0.44c-0.01-0.15-0.03-0.29-0.03-0.44H189.35z"/>
		<linearGradient id="SVGID_4_" gradientUnits="userSpaceOnUse" x1="181.1238" y1="189.7457" x2="258.7097" y2="189.7457">
			<stop  offset="0" style="stop-color:#17C9C0"/>
			<stop  offset="0.1678" style="stop-color:#00A9D7"/>
			<stop  offset="0.5644" style="stop-color:#1CD0BB"/>
			<stop  offset="1" style="stop-color:#0FBEC8"/>
		</linearGradient>
		<path class="st4" d="M258.71,189.346c0,0.27-0.02,0.54-0.06,0.8v-0.8H258.71z"/>
		<linearGradient id="SVGID_5_" gradientUnits="userSpaceOnUse" x1="189.3195" y1="212.9857" x2="268.9846" y2="212.9857">
			<stop  offset="0" style="stop-color:#17C9C0"/>
			<stop  offset="0.1678" style="stop-color:#00A9D7"/>
			<stop  offset="0.5644" style="stop-color:#1CD0BB"/>
			<stop  offset="1" style="stop-color:#0FBEC8"/>
		</linearGradient>
		<path class="st5" d="M189.35,212.766v0.44c-0.01-0.15-0.03-0.29-0.03-0.44H189.35z"/>
		<linearGradient id="SVGID_6_" gradientUnits="userSpaceOnUse" x1="189.3198" y1="189.1956" x2="258.71" y2="189.1956">
			<stop  offset="0" style="stop-color:#17C9C0"/>
			<stop  offset="0.1678" style="stop-color:#00A9D7"/>
			<stop  offset="0.5644" style="stop-color:#1CD0BB"/>
			<stop  offset="1" style="stop-color:#0FBEC8"/>
		</linearGradient>
		<path class="st6" d="M247.01,156.196c-6.19-1.71-14.35-2.65-23-2.65c-8.64,0-16.8,0.94-22.99,2.65c-7.76,2.13-11.7,5.31-11.7,9.43
			c0,0.15,0.02,0.29,0.03,0.43v47.15c0.01,0.14,0.02,0.28,0.03,0.41c0.52,3.71,4.42,6.6,11.64,8.59c6.19,1.7,14.35,2.64,22.99,2.64
			c8.65,0,16.81-0.94,23-2.64c7.22-1.99,11.12-4.88,11.64-8.59v-47.19c0.04-0.26,0.06-0.53,0.06-0.8
			C258.71,161.506,254.77,158.326,247.01,156.196z M224.01,160.496c15.44,0,25.43,3.12,27.521,5.13
			c-2.09,2.01-12.08,5.12-27.521,5.12c-15.43,0-25.42-3.11-27.51-5.12C198.59,163.616,208.58,160.496,224.01,160.496z
			 M251.7,212.556c-1.55,1.99-11.67,5.34-27.69,5.34c-16.1,0-26.25-3.38-27.71-5.38v-15.37c1.37,0.6,2.94,1.14,4.72,1.63
			c6.19,1.71,14.35,2.65,22.99,2.65c8.65,0,16.81-0.94,23-2.65c1.771-0.48,3.32-1.03,4.69-1.62V212.556z M251.7,189.126
			c-1.55,2-11.67,5.35-27.69,5.35c-16.1,0-26.25-3.39-27.71-5.38v-15.67c1.37,0.6,2.94,1.14,4.72,1.63
			c6.19,1.71,14.35,2.65,22.99,2.65c8.65,0,16.81-0.94,23-2.65c1.771-0.48,3.32-1.03,4.69-1.62V189.126z"/>
		<linearGradient id="SVGID_7_" gradientUnits="userSpaceOnUse" x1="181.1238" y1="213.1656" x2="258.7097" y2="213.1656">
			<stop  offset="0" style="stop-color:#17C9C0"/>
			<stop  offset="0.1678" style="stop-color:#00A9D7"/>
			<stop  offset="0.5644" style="stop-color:#1CD0BB"/>
			<stop  offset="1" style="stop-color:#0FBEC8"/>
		</linearGradient>
		<path class="st7" d="M258.71,212.766c0,0.27-0.02,0.54-0.06,0.8v-0.8H258.71z"/>
		<linearGradient id="SVGID_8_" gradientUnits="userSpaceOnUse" x1="189.3499" y1="213.4106" x2="195.0803" y2="213.4106">
			<stop  offset="0" style="stop-color:#17C9C0"/>
			<stop  offset="0.1678" style="stop-color:#00A9D7"/>
			<stop  offset="0.5644" style="stop-color:#1CD0BB"/>
			<stop  offset="1" style="stop-color:#0FBEC8"/>
		</linearGradient>
		<path class="st8" d="M189.38,213.616h-0.03v-0.41C189.36,213.346,189.37,213.486,189.38,213.616z"/>
	</g>
</g>
<linearGradient id="SVGID_9_" gradientUnits="userSpaceOnUse" x1="407.1884" y1="-3852.7498" x2="494.6993" y2="-3802.2253" gradientTransform="matrix(1 0 0 -1 0 -3936.0886)">
	<stop  offset="0" style="stop-color:#00A9D7"/>
	<stop  offset="0.9724" style="stop-color:#1CD0BB"/>
</linearGradient>
<rect x="401.557" y="-124.11" class="st9" width="98.773" height="31.018"/>
</svg>
